<?xml version="1.0" encoding="UTF-8"?>
<svg id="uuid-02593b19-42e9-42f7-8fae-b242c93265fe" data-name="Layer 2" xmlns="http://www.w3.org/2000/svg" viewBox="0 0 510.5 555.54">
  <g id="uuid-b370888d-68b2-4038-97fd-f16fbbf3db0a" data-name="katman 1">
    <g>
      <path d="M283.45,197.56v190c-15.79-8.28-40.77-21.39-56.39-29.58v-190c15.75,8.27,40.81,21.4,56.39,29.58Z" style="fill: #7d7d96; stroke-width: 0px;"/>
      <path d="M255.41,51.02l-25.51,28.35-2.84,3.16-22.67,25.19-1.13-21.42C11.08,141.81,8.03,407.97,198.71,468c-23.27-67.13-47.47-136.89-70.74-204.04,31.29-30.32,67.73-65.6,99.09-95.98v363.37C111.32,520.18,13,421.89,1.85,306.14-14.11,179.44,75.21,54.58,200.22,28.67c-.2-3.89-1.28-24.34-1.51-28.67,14.82,13.35,41.81,37.62,56.7,51.02Z" style="fill: #c7c7d2; stroke-width: 0px;"/>
      <path d="M310.29,526.87c.19,3.89,1.28,24.34,1.51,28.67-14.83-13.35-41.82-37.63-56.7-51.02l25.51-28.35,2.84-3.16,22.67-25.19,1.13,21.42c192.18-55.52,195.23-321.68,4.55-381.7,23.27,67.13,47.46,136.88,70.74,204.04-31.3,30.32-67.74,65.6-99.09,95.98V24.19c115.74,11.16,214.05,109.45,225.21,225.21,15.95,126.69-73.37,251.56-198.37,277.47Z" style="fill: #595978; stroke-width: 0px;"/>
    </g>
  </g>
</svg>